PathFileType	4	(X/Y/Z)	C:/Users/opensim2020/Desktop/walking_exp_matlab/subject06_walking12_straigt_01.trc	
DataRate	CameraRate	NumFrames	NumMarkers	Units	OrigDataRate	OrigDataStartFrame	OrigNumFrames	
100.00	100.00	6	48	mm	100.00	917	196	
Frame#	Time	LFHD			RFHD			LBHD			RBHD			C7			T10			CLAV			STRN			RBAK			LSHO			LUPA			LELB			LFRM			LWRA			LWRB			LFIN			RSHO			RUPA			RELB			RFRM			RWRA			RWRB			RFIN			LASI			RASI			LPSI			RPSI			LTHI			LKNE			LTIB			LANK			LHEE			LTOE			RTHI			RKNE			RTIB			RANK			RHEE			RTOE			*39			*40			*41			*42			*43			*44			*45			*46			*47			
		X1	Y1	Z1	X2	Y2	Z2	X3	Y3	Z3	X4	Y4	Z4	X5	Y5	Z5	X6	Y6	Z6	X7	Y7	Z7	X8	Y8	Z8	X9	Y9	Z9	X10	Y10	Z10	X11	Y11	Z11	X12	Y12	Z12	X13	Y13	Z13	X14	Y14	Z14	X15	Y15	Z15	X16	Y16	Z16	X17	Y17	Z17	X18	Y18	Z18	X19	Y19	Z19	X20	Y20	Z20	X21	Y21	Z21	X22	Y22	Z22	X23	Y23	Z23	X24	Y24	Z24	X25	Y25	Z25	X26	Y26	Z26	X27	Y27	Z27	X28	Y28	Z28	X29	Y29	Z29	X30	Y30	Z30	X31	Y31	Z31	X32	Y32	Z32	X33	Y33	Z33	X34	Y34	Z34	X35	Y35	Z35	X36	Y36	Z36	X37	Y37	Z37	X38	Y38	Z38	X39	Y39	Z39	X40	Y40	Z40	X41	Y41	Z41	X42	Y42	Z42	X43	Y43	Z43	X44	Y44	Z44	X45	Y45	Z45	X46	Y46	Z46	X47	Y47	Z47	X48	Y48	Z48	

123	1.220	-1100.80530	350.03329	1660.99390	-969.48291	340.98166	1648.98462	-1110.55151	213.05934	1620.21326	-981.59937	206.02127	1612.54285	-1053.40784	195.91241	1455.80737	-1043.36218	162.57436	1125.17615	-1045.67566	304.46069	1376.10034	-1050.08582	344.45953	1201.46338	-978.72437	117.76782	1284.21082	-1209.44885	257.20145	1409.36816	-1289.48816	281.81354	1211.45581	-1307.74011	298.35080	1100.89209	-1328.08447	364.46982	965.47852	-1276.84375	446.90543	870.25751	-1324.50671	398.66983	851.13531	-1319.83447	461.60675	786.77362	-887.71765	249.88953	1411.00159	-802.40326	191.71910	1217.07947	-787.80426	190.67877	1095.23340	-765.61548	184.58076	975.84546	-785.15515	216.71651	825.41217	-749.78278	161.60033	839.74390	-742.83734	180.87396	757.00079	-1144.84424	342.93906	964.54358	-924.80347	335.53149	972.30908	-1120.46997	185.63681	993.78821	-951.80927	185.43686	993.19836	-1198.02441	267.46194	650.39075	-1173.83203	254.33653	486.63669	-1156.89282	200.88319	235.43027	-1110.19751	180.08687	65.41219	-1065.82617	138.36902	53.72469	-1105.21399	325.05933	35.26317	-869.84863	361.84317	646.29590	-893.45734	408.71283	529.79907	-900.63361	275.88925	308.37112	-944.06952	177.54036	151.50909	-993.37927	135.46416	142.04631	-925.53040	296.44077	56.52439	-1047.32251	250.58005	1708.73840																								 
124	1.230	-1100.15967	361.31021	1660.09790	-968.88367	351.62372	1647.92224	-1110.61316	224.16953	1619.96460	-981.74371	216.51385	1612.11865	-1053.65991	206.24200	1455.21960	-1043.90344	172.64722	1124.44678	-1045.70667	314.69022	1375.40649	-1050.28430	354.53705	1200.79895	-979.46912	127.69859	1283.52734	-1209.64819	267.56454	1408.95679	-1289.71960	294.18396	1211.44189	-1308.20776	313.09460	1101.25305	-1328.05371	382.18936	967.37946	-1277.01367	467.23267	874.45679	-1324.30359	419.21768	853.82684	-1319.76660	483.84677	791.14697	-887.90509	259.48785	1410.20093	-802.61444	201.03214	1216.36304	-788.32831	199.74115	1094.50513	-765.88531	193.10825	975.16107	-785.25818	225.18286	824.74280	-750.33972	169.82501	839.07574	-743.10095	189.25391	756.41907	-1145.83240	352.94315	963.70795	-925.44702	345.67236	971.80780	-1120.83594	195.19711	993.20813	-952.10931	195.52452	992.66418	-1198.12744	274.58990	649.75165	-1174.01807	259.32034	485.97214	-1157.14856	202.98619	235.33589	-1110.08911	180.47372	65.62898	-1065.66956	138.61052	54.14523	-1105.06653	325.18814	34.88473	-871.00714	375.53186	647.82178	-894.36029	423.65475	531.86615	-900.89203	299.88144	304.36115	-943.98053	209.46590	142.52278	-993.12372	167.66000	130.91425	-926.15179	333.41119	54.35616	-1047.11340	261.86682	1708.20020																								 
125	1.240	-1099.48181	372.58875	1659.13306	-968.29736	362.34421	1646.82935	-1110.64771	235.31728	1619.58496	-981.76947	227.06880	1611.61401	-1053.87988	216.59425	1454.58240	-1044.35583	182.65985	1123.70361	-1045.71887	324.89267	1374.67468	-1050.48376	364.57162	1200.02515	-980.21063	137.82895	1282.53589	-1209.73828	277.98788	1408.46643	-1289.93652	306.45908	1211.33484	-1308.52612	327.64783	1101.54871	-1328.10205	399.74252	969.14862	-1276.96948	487.22040	878.65515	-1323.89063	439.51846	856.54364	-1319.47900	505.82996	795.68115	-888.09247	268.91638	1409.31299	-803.24738	209.81970	1215.55957	-788.48798	208.17111	1093.78625	-766.21545	201.70805	974.40387	-785.23724	234.01035	824.02057	-750.59692	178.37531	838.34143	-743.30481	197.86406	755.68225	-1146.23840	362.02621	962.57794	-926.16656	356.08594	971.22626	-1121.09485	204.73941	992.54028	-952.35486	205.71608	992.00482	-1198.04907	281.76843	648.99487	-1174.30176	264.46490	485.41833	-1156.94556	205.37224	235.36610	-1109.97412	180.81813	65.88340	-1065.57312	138.60330	54.71008	-1105.02979	325.42233	34.70369	-872.12476	388.81888	649.19562	-894.70941	437.99588	533.66949	-901.08813	323.61948	300.34372	-943.92444	241.81593	133.79103	-992.94312	200.42477	120.16235	-926.96979	370.43216	52.49836	-1046.82385	273.11465	1707.55396																								 
126	1.250	-1098.75525	383.89880	1658.14404	-967.63129	372.99310	1645.71021	-1110.58899	246.51482	1619.08728	-981.79291	237.69635	1610.97656	-1054.02405	227.07246	1453.90088	-1044.75024	192.60678	1122.96204	-1045.71021	335.19141	1373.80823	-1050.69421	374.60474	1199.12012	-980.75409	147.74922	1281.73779	-1209.78955	288.44724	1407.83386	-1290.28076	318.89282	1211.24890	-1308.71924	342.08990	1101.75562	-1328.03088	417.18494	971.00000	-1276.60510	507.01923	882.96698	-1323.31885	459.51846	859.26678	-1319.01550	527.13568	799.92572	-888.13214	278.85349	1408.21448	-803.48236	219.33272	1214.50732	-789.00244	217.38872	1092.84155	-766.46045	210.44801	973.56604	-785.16089	242.92310	823.19025	-750.97705	186.94838	837.45947	-743.29242	206.44505	754.86407	-1147.30786	371.84042	961.60205	-926.70374	366.33124	970.48572	-1121.17468	214.28740	991.76678	-952.45624	215.80063	991.31659	-1197.93982	288.95544	648.23615	-1174.35925	269.76331	484.89514	-1156.86816	207.62325	235.42108	-1109.86047	181.20874	66.13834	-1065.55542	138.83521	55.22828	-1105.12732	325.68890	34.73314	-873.20294	401.60773	650.44501	-895.43073	451.26120	535.01300	-901.21442	347.03479	296.39984	-943.84705	274.28168	125.47084	-992.83850	233.67261	109.71738	-928.04956	407.33481	51.17218	-1046.51184	284.32285	1706.83557																								 
127	1.260	-1097.82410	395.12103	1657.42249	-966.99054	383.63248	1644.48315	-1110.48352	257.67905	1618.50183	-981.69482	248.25638	1610.29614	-1054.08228	237.41693	1453.25977	-1045.07898	202.42923	1122.25073	-1045.69824	345.48288	1372.89160	-1050.93103	384.54327	1198.12805	-981.29791	157.77431	1280.84778	-1209.80347	298.99973	1407.16296	-1290.32874	331.28958	1211.03809	-1308.76196	356.33093	1101.86829	-1327.73267	434.29370	972.82672	-1276.40735	526.32153	887.16608	-1322.60022	479.30679	862.10950	-1318.30676	548.58026	804.76410	-888.16693	288.50021	1407.26355	-803.76031	228.49591	1213.67114	-789.06799	226.23802	1091.94360	-766.72876	219.34976	972.61469	-785.13318	251.90762	822.23523	-751.32544	195.66800	836.58130	-743.33789	215.18849	753.99524	-1148.06738	381.20459	960.46771	-927.41260	376.66827	969.89392	-1121.15601	223.77327	990.86987	-952.39551	225.86707	990.52850	-1197.78149	296.08585	647.42664	-1174.23828	275.09521	484.28329	-1156.96533	209.89795	235.48438	-1109.74561	181.68649	66.52107	-1065.30042	138.83307	55.89808	-1105.22205	325.70459	34.60609	-874.08972	414.01291	651.31500	-895.83008	464.32175	536.25079	-901.44000	370.13779	292.64798	-944.18756	306.97913	117.64388	-992.21484	266.16046	100.13394	-929.02661	443.97214	50.22294	-1046.19202	295.44254	1705.98975																								 
128	1.270	-1097.08948	406.34793	1656.27209	-966.31830	394.36697	1643.27039	-1110.22070	268.77051	1617.79590	-981.54193	258.90720	1609.47302	-1054.18921	248.09814	1452.56152	-1045.32532	212.33020	1121.47388	-1045.58875	355.72003	1371.89673	-1051.11365	394.49338	1197.06726	-981.70471	167.79321	1280.00110	-1209.71448	309.58771	1406.35449	-1290.08911	343.75031	1210.53882	-1308.66125	370.33878	1101.87549	-1327.36890	451.23880	974.65271	-1275.78296	545.27557	891.41895	-1321.65369	498.79816	864.92719	-1317.37317	569.63470	809.49402	-888.13177	298.43143	1406.15820	-804.09717	237.91895	1212.63135	-789.35553	235.51410	1090.94885	-766.94452	228.34848	971.58484	-784.95288	261.12350	821.23230	-751.65863	204.58478	835.58112	-743.35535	224.11304	753.11267	-1148.80884	390.69803	959.28406	-928.09674	387.19824	969.15741	-1121.11816	233.23236	989.89502	-952.36072	236.12157	989.70117	-1197.78735	303.11462	646.53827	-1173.81616	280.66589	483.56720	-1156.55627	212.54825	235.57185	-1109.60156	182.16760	66.91617	-1065.21960	139.09619	56.55429	-1105.06482	326.09586	34.53913	-874.72760	425.82761	651.98328	-896.30414	476.67194	537.15112	-901.70929	392.92673	289.01816	-944.43518	339.81818	110.55170	-993.01624	300.37009	91.29718	-929.99579	480.08481	49.57626	-1045.70557	306.69934	1705.21423																								 
